<?xml version="1.0" encoding="utf-8"?><svg xmlns="http://www.w3.org/2000/svg" xmlns:xlink="http://www.w3.org/1999/xlink"><symbol viewBox="0 0 21 24.5" id="arrows-down" xmlns="http://www.w3.org/2000/svg">
    <path d="M10.3067 23.8879C10.7049 23.8485 11.0819 23.688 11.3847 23.4276L19.524 16.451C19.9343 16.1225 20.1932 15.641 20.2417 15.1187C20.2901 14.5963 20.1251 14.077 19.7845 13.6773C19.4423 13.2791 18.9548 13.0354 18.4309 13.0036C17.9071 12.9718 17.3923 13.1535 17.0047 13.5077L10.125 19.4065L3.24529 13.5077C2.8577 13.1535 2.34295 12.9718 1.81908 13.0036C1.29521 13.0354 0.807705 13.2791 0.465542 13.6773C0.124886 14.077 -0.040146 14.5963 0.00830261 15.1187C0.0567513 15.641 0.315649 16.1225 0.725963 16.451L8.86534 23.4276C9.26351 23.7698 9.78435 23.9348 10.3067 23.8879Z"/>
    <path d="M10.3067 10.8879C10.7049 10.8485 11.0819 10.688 11.3847 10.4276L19.524 3.45102C19.9343 3.12248 20.1932 2.64104 20.2417 2.11868C20.2901 1.59633 20.1251 1.07704 19.7845 0.677315C19.4423 0.279144 18.9548 0.0353896 18.4309 0.00356854C17.9071 -0.0282258 17.3923 0.153457 17.0047 0.507745L10.125 6.40646L3.24529 0.507745C2.8577 0.153465 2.34295 -0.0282138 1.81908 0.00356854C1.29521 0.0353629 0.807705 0.279121 0.465542 0.677315C0.124886 1.077 -0.040146 1.59633 0.00830261 2.11868C0.0567513 2.64104 0.315649 3.12246 0.725963 3.45102L8.86534 10.4276C9.26351 10.7698 9.78435 10.9348 10.3067 10.8879Z"/>
</symbol><symbol viewBox="0 0 25 21" id="arrows-left" xmlns="http://www.w3.org/2000/svg">
    <path d="M8.77789 0.562669L0.564298 8.71345C-0.188099 9.46459 -0.188099 10.6838 0.564298 11.4324L8.77789 19.5881C9.5366 20.3392 10.7646 20.3354 11.5233 19.5881C12.2744 18.8357 12.2744 17.6215 11.5233 16.8691L6.71818 12.1016H22.1324C23.2459 12.1016 24.1467 11.202 24.1467 10.0885C24.1467 8.97625 23.2459 8.07537 22.1324 8.07537H6.68919L11.5233 3.28282C12.2744 2.53168 12.2744 1.31623 11.5233 0.565085C10.7658 -0.187313 9.53783 -0.188569 8.77789 0.562568V0.562669Z"/>
</symbol><symbol viewBox="0 0 25 21" id="arrows-right" xmlns="http://www.w3.org/2000/svg">
    <path d="M15.3688 19.5874L23.5824 11.4366C24.3348 10.6854 24.3348 9.46621 23.5824 8.71758L15.3688 0.561968C14.6101 -0.189173 13.3821 -0.185405 12.6234 0.561968C11.8723 1.31437 11.8723 2.52856 12.6234 3.28096L17.4285 8.04838L2.01437 8.04838C0.900866 8.04838 -1.90735e-05 8.94801 -1.90735e-05 10.0615C-1.90735e-05 11.1738 0.900866 12.0747 2.01437 12.0747L17.4575 12.0747L12.6234 16.8672C11.8723 17.6183 11.8723 18.8338 12.6234 19.5849C13.3809 20.3373 14.6089 20.3385 15.3688 19.5874Z"/>
</symbol><symbol viewBox="0 0 168 280" id="logo" xmlns="http://www.w3.org/2000/svg">
    <path fill-rule="evenodd" clip-rule="evenodd" d="M0 -10H168V181H0V-10Z"/>
    <path d="M60.22 145.36C60.22 142.2 60.68 139.42 61.6 137.02C62.52 134.58 63.9 132.4 65.74 130.48L71.62 135.46C69.34 138.34 68.2 141.36 68.2 144.52C68.2 146.16 68.52 147.42 69.16 148.3C69.76 149.14 70.62 149.56 71.74 149.56C72.54 149.56 73.2 149.34 73.72 148.9C74.24 148.46 74.74 147.72 75.22 146.68C75.7 145.64 76.3 144 77.02 141.76C78.38 137.48 80.1 134.36 82.18 132.4C84.22 130.4 87.06 129.4 90.7 129.4C93.34 129.4 95.68 130.08 97.72 131.44C99.72 132.8 101.28 134.78 102.4 137.38C103.52 139.94 104.08 142.96 104.08 146.44C104.08 153.08 102.06 158.5 98.02 162.7L91.96 157.24C94.68 153.92 96.04 150.46 96.04 146.86C96.04 144.98 95.64 143.52 94.84 142.48C94 141.44 92.9 140.92 91.54 140.92C90.58 140.92 89.8 141.12 89.2 141.52C88.56 141.92 88 142.64 87.52 143.68C87 144.68 86.44 146.16 85.84 148.12C84.36 152.84 82.58 156.16 80.5 158.08C78.42 160 75.8 160.96 72.64 160.96C70.16 160.96 67.98 160.3 66.1 158.98C64.22 157.62 62.78 155.76 61.78 153.4C60.74 151 60.22 148.32 60.22 145.36ZM89.02 91.9553C91.9 91.9553 94.48 92.5953 96.76 93.8753C99.04 95.1153 100.84 96.9953 102.16 99.5153C103.44 102.035 104.08 105.115 104.08 108.755C104.08 114.275 102.74 118.455 100.06 121.295C97.34 124.135 93.66 125.555 89.02 125.555H61.3V114.455H88.66C91.18 114.455 93.04 114.015 94.24 113.135C95.4 112.215 95.98 110.755 95.98 108.755C95.98 106.755 95.38 105.315 94.18 104.435C92.98 103.555 91.14 103.115 88.66 103.115H61.3V91.9553H89.02ZM87.64 71.9477V75.0077H103V86.1077H61.3V71.6477C61.3 65.7677 62.36 61.3877 64.48 58.5077C66.6 55.5877 69.86 54.1277 74.26 54.1277C76.9 54.1277 79.1 54.7477 80.86 55.9877C82.62 57.1877 84.2 59.1277 85.6 61.8077L103 51.4277V63.7877L87.64 71.9477ZM80.08 75.0077V71.2877C80.08 67.4477 78.14 65.5277 74.26 65.5277C72.46 65.5277 71.14 66.0677 70.3 67.1477C69.46 68.1877 69.04 69.7677 69.04 71.8877V75.0077H80.08ZM103 48.9006H61.3V23.2806L69.16 24.4206V37.8006H79.18V26.0406H87.04V37.8006H103V48.9006Z"/>
    <path d="M60.22 257.92C60.22 252.36 61.98 247.58 65.5 243.58L71.2 249.04C70.12 250.56 69.34 251.94 68.86 253.18C68.34 254.38 68.08 255.76 68.08 257.32C68.08 260.32 69.24 262.68 71.56 264.4C73.88 266.08 77.42 266.92 82.18 266.92C85.66 266.92 88.42 266.64 90.46 266.08C92.46 265.52 93.9 264.68 94.78 263.56C95.66 262.4 96.1 260.92 96.1 259.12C96.1 257.32 95.72 255.68 94.96 254.2H86.38V258.94L78.76 260.02V243.46H99.52C100.96 245.62 102.08 248.06 102.88 250.78C103.68 253.5 104.08 256.18 104.08 258.82C104.08 271.86 96.76 278.38 82.12 278.38C77.56 278.38 73.64 277.5 70.36 275.74C67.04 273.94 64.52 271.5 62.8 268.42C61.08 265.34 60.22 261.84 60.22 257.92ZM60.22 220.335C60.22 214.295 62.14 209.595 65.98 206.235C69.82 202.875 75.2 201.195 82.12 201.195C86.64 201.195 90.56 201.955 93.88 203.475C97.16 204.955 99.68 207.135 101.44 210.015C103.2 212.895 104.08 216.335 104.08 220.335C104.08 226.375 102.16 231.075 98.32 234.435C94.48 237.755 89.08 239.415 82.12 239.415C77.6 239.415 73.7 238.675 70.42 237.195C67.14 235.675 64.62 233.495 62.86 230.655C61.1 227.775 60.22 224.335 60.22 220.335ZM68.2 220.335C68.2 222.935 69.28 224.855 71.44 226.095C73.6 227.295 77.16 227.895 82.12 227.895C87.08 227.895 90.66 227.275 92.86 226.035C95.02 224.795 96.1 222.895 96.1 220.335C96.1 217.695 95.02 215.775 92.86 214.575C90.7 213.375 87.12 212.775 82.12 212.775C77.16 212.775 73.6 213.375 71.44 214.575C69.28 215.775 68.2 217.695 68.2 220.335Z"/>
    <rect x="83" y="191" width="20" height="1" transform="rotate(-90 83 191)"/>
</symbol></svg>