<?xml version="1.0" encoding="utf-8"?><svg viewBox="0 0 168 280" xmlns="http://www.w3.org/2000/svg" xmlns:xlink="http://www.w3.org/1999/xlink"><style>:root>svg{display:none}:root>svg:target{display:block}</style><svg viewBox="0 0 21 24.5" fill="none" id="arrows-down" xmlns="http://www.w3.org/2000/svg">
    <path d="M10.307 23.888c.398-.04.775-.2 1.078-.46l8.139-6.977a1.937 1.937 0 0 0-1.093-3.447 1.94 1.94 0 0 0-1.426.504l-6.88 5.899-6.88-5.9a1.94 1.94 0 0 0-2.78.17 1.937 1.937 0 0 0 .26 2.774l8.14 6.977c.399.342.92.507 1.442.46ZM10.307 10.888c.398-.04.775-.2 1.078-.46l8.139-6.977a1.937 1.937 0 1 0-2.52-2.943l-6.879 5.898L3.245.508a1.94 1.94 0 0 0-2.78.17 1.937 1.937 0 0 0 .26 2.774l8.14 6.976c.399.342.92.507 1.442.46Z" fill="#fff"/>
</svg><svg fill="none" viewBox="0 0 25 21" id="arrows-left" xmlns="http://www.w3.org/2000/svg">
    <path d="M8.778.563.564 8.713a1.92 1.92 0 0 0 0 2.72l8.214 8.155a1.958 1.958 0 0 0 2.745 0 1.922 1.922 0 0 0 0-2.719l-4.805-4.767h15.414a2.012 2.012 0 1 0 0-4.027H6.69l4.834-4.792a1.92 1.92 0 0 0 0-2.718A1.953 1.953 0 0 0 8.778.563Z" fill="#fff"/>
</svg><svg fill="none" viewBox="0 0 25 21" id="arrows-right" xmlns="http://www.w3.org/2000/svg">
    <path d="m15.369 19.587 8.213-8.15a1.92 1.92 0 0 0 0-2.72L15.37.563a1.958 1.958 0 0 0-2.746 0 1.922 1.922 0 0 0 0 2.719l4.806 4.767H2.014a2.012 2.012 0 1 0 0 4.027h15.444l-4.835 4.792a1.92 1.92 0 0 0 0 2.718 1.953 1.953 0 0 0 2.746.002Z" fill="#fff"/>
</svg><svg fill="none" viewBox="0 0 168 280" id="logo" xmlns="http://www.w3.org/2000/svg">
    <path fill-rule="evenodd" clip-rule="evenodd" d="M0-10h168v191H0V-10Z" fill="#4AF6CD"/>
    <path d="M60.22 145.36c0-3.16.46-5.94 1.38-8.34.92-2.44 2.3-4.62 4.14-6.54l5.88 4.98c-2.28 2.88-3.42 5.9-3.42 9.06 0 1.64.32 2.9.96 3.78.6.84 1.46 1.26 2.58 1.26.8 0 1.46-.22 1.98-.66.52-.44 1.02-1.18 1.5-2.22.48-1.04 1.08-2.68 1.8-4.92 1.36-4.28 3.08-7.4 5.16-9.36 2.04-2 4.88-3 8.52-3 2.64 0 4.98.68 7.02 2.04 2 1.36 3.56 3.34 4.68 5.94 1.12 2.56 1.68 5.58 1.68 9.06 0 6.64-2.02 12.06-6.06 16.26l-6.06-5.46c2.72-3.32 4.08-6.78 4.08-10.38 0-1.88-.4-3.34-1.2-4.38-.84-1.04-1.94-1.56-3.3-1.56-.96 0-1.74.2-2.34.6-.64.4-1.2 1.12-1.68 2.16-.52 1-1.08 2.48-1.68 4.44-1.48 4.72-3.26 8.04-5.34 9.96-2.08 1.92-4.7 2.88-7.86 2.88-2.48 0-4.66-.66-6.54-1.98-1.88-1.36-3.32-3.22-4.32-5.58-1.04-2.4-1.56-5.08-1.56-8.04Zm28.8-53.405c2.88 0 5.46.64 7.74 1.92 2.28 1.24 4.08 3.12 5.4 5.64 1.28 2.52 1.92 5.6 1.92 9.24 0 5.52-1.34 9.7-4.02 12.54-2.72 2.84-6.4 4.26-11.04 4.26H61.3v-11.1h27.36c2.52 0 4.38-.44 5.58-1.32 1.16-.92 1.74-2.38 1.74-4.38s-.6-3.44-1.8-4.32c-1.2-.88-3.04-1.32-5.52-1.32H61.3v-11.16h27.72Zm-1.38-20.007v3.06H103v11.1H61.3v-14.46c0-5.88 1.06-10.26 3.18-13.14 2.12-2.92 5.38-4.38 9.78-4.38 2.64 0 4.84.62 6.6 1.86 1.76 1.2 3.34 3.14 4.74 5.82l17.4-10.38v12.36l-15.36 8.16Zm-7.56 3.06v-3.72c0-3.84-1.94-5.76-5.82-5.76-1.8 0-3.12.54-3.96 1.62-.84 1.04-1.26 2.62-1.26 4.74v3.12h11.04ZM103 48.9H61.3V23.28l7.86 1.14V37.8h10.02V26.04h7.86V37.8H103v11.1ZM60.22 257.92c0-5.56 1.76-10.34 5.28-14.34l5.7 5.46c-1.08 1.52-1.86 2.9-2.34 4.14-.52 1.2-.78 2.58-.78 4.14 0 3 1.16 5.36 3.48 7.08 2.32 1.68 5.86 2.52 10.62 2.52 3.48 0 6.24-.28 8.28-.84 2-.56 3.44-1.4 4.32-2.52.88-1.16 1.32-2.64 1.32-4.44 0-1.8-.38-3.44-1.14-4.92h-8.58v4.74l-7.62 1.08v-16.56h20.76c1.44 2.16 2.56 4.6 3.36 7.32.8 2.72 1.2 5.4 1.2 8.04 0 13.04-7.32 19.56-21.96 19.56-4.56 0-8.48-.88-11.76-2.64-3.32-1.8-5.84-4.24-7.56-7.32-1.72-3.08-2.58-6.58-2.58-10.5Zm0-37.585c0-6.04 1.92-10.74 5.76-14.1 3.84-3.36 9.22-5.04 16.14-5.04 4.52 0 8.44.76 11.76 2.28 3.28 1.48 5.8 3.66 7.56 6.54 1.76 2.88 2.64 6.32 2.64 10.32 0 6.04-1.92 10.74-5.76 14.1-3.84 3.32-9.24 4.98-16.2 4.98-4.52 0-8.42-.74-11.7-2.22-3.28-1.52-5.8-3.7-7.56-6.54-1.76-2.88-2.64-6.32-2.64-10.32Zm7.98 0c0 2.6 1.08 4.52 3.24 5.76 2.16 1.2 5.72 1.8 10.68 1.8s8.54-.62 10.74-1.86c2.16-1.24 3.24-3.14 3.24-5.7 0-2.64-1.08-4.56-3.24-5.76-2.16-1.2-5.74-1.8-10.74-1.8-4.96 0-8.52.6-10.68 1.8-2.16 1.2-3.24 3.12-3.24 5.76ZM83 191v-20h1v20z" fill="#fff"/>
</svg></svg>