<svg width="1001" height="496" viewBox="0 0 1001 496"  xmlns="http://www.w3.org/2000/svg">
<g opacity="0.29827">
<path class="animate__animated animate__fadeIn" d="M1008.08 163.448L443.182 -356.858V-747.19L28.1096 -770C24.9043 -762.456 4.36709 -740.714 7.57176 -728.596C11.43 -714.102 30.8387 -718.735 36.4776 -709.409C43.0661 -698.42 31.7291 -653.749 28.3457 -640.86C21.8759 -616.445 7.09676 -596.665 2.82235 -572.25C-4.35982 -531.263 10.1824 -534.53 37.7242 -508.927C84.141 -465.742 46.9244 -420.952 58.6176 -370.223C68.1146 -328.878 109.605 -307.554 124.8 -266.211C136.553 -234.37 152.697 -226.233 177.746 -202.947C177.153 -217.084 164.51 -258.785 188.253 -255.102C211.817 -251.478 202.736 -216.669 207.247 -202.115C211.045 -189.997 237.933 -165.761 215.616 -154.593C208.196 -150.91 187.066 -165.582 178.577 -169.503C184.572 -150.791 180.774 -131.367 190.271 -113.487C201.608 -92.162 213.835 -100.359 228.853 -88.7754C244.344 -76.8355 242.683 -63.1137 235.797 -45.0554C228.615 -26.2247 221.196 -29.1352 232.592 -6.44342C240.843 9.95119 254.85 30.7421 266.9 43.2164C273.904 50.4634 281.502 52.1267 288.506 61.3932C294.323 69.1155 292.067 79.2142 299.012 86.1638C310.883 98.1037 331.006 98.282 340.384 113.904C350.831 131.309 338.96 144.437 369.706 142.833C371.309 177.643 377.897 209.185 377.541 243.994C394.695 250.825 422.414 242.687 440.399 239.063C458.266 263.18 481.355 246.429 501.774 259.558C510.678 265.26 508.837 279.517 514.239 284.506C525.339 294.723 533.529 288.308 547.301 291.872C557.51 294.486 565.404 301.97 575.138 304.703C584.338 307.257 599.475 301.258 606.301 309.396C614.492 319.138 600.78 336.958 613.127 344.799C623.395 351.333 638.115 335.77 648.088 338.027C659.721 340.7 693.079 371.174 701.271 381.212C710.59 392.677 719.969 414.062 725.25 428.793C733.501 451.841 732.373 463.127 749.408 479.998C760.27 490.75 749.942 491.522 767.63 494.67C779.204 496.749 794.518 488.374 806.212 487.067C830.549 484.394 855.122 489.027 879.102 484.453C901.421 480.176 922.729 473.166 945.64 469.899C965.465 467.048 1000.37 469.246 1017.94 459.801C1036.99 449.643 1038.71 426.654 1011.17 430.932C1008.97 416.26 1018.77 396.003 1007.85 385.847C1023.04 365.056 1028.56 350.384 1030.93 324.959C1032 313.792 1032.48 301.436 1038 292.05C1043.4 282.783 1058.59 277.259 1061.56 269.299C1066.13 256.943 1058.83 251.419 1053.25 244.528C1049.69 240.073 1039.54 242.212 1036.63 238.291C1031.23 231.103 1036.57 223.678 1033.6 216.431C1024.94 195.462 1014.61 187.205 1008.08 163.444C1008.26 167.424 1008.44 171.463 1008.2 175.384" stroke="white" stroke-width="2" stroke-linecap="round" stroke-linejoin="round"/>
</g>
<path class="animate__animated animate__fadeIn animate__delay-2s" fill-rule="evenodd" clip-rule="evenodd" d="M570 319C571.657 319 573 317.657 573 316C573 314.343 571.657 313 570 313C568.343 313 567 314.343 567 316C567 317.657 568.343 319 570 319Z" fill="#4AF6CD"/>
<path class="animate__animated animate__fadeIn animate__delay-3s" fill-rule="evenodd" clip-rule="evenodd" d="M661 363C662.657 363 664 361.657 664 360C664 358.343 662.657 357 661 357C659.343 357 658 358.343 658 360C658 361.657 659.343 363 661 363Z" fill="#4AF6CD"/>
<path class="animate__animated animate__fadeIn animate__delay-4s" fill-rule="evenodd" clip-rule="evenodd" d="M725 471C726.657 471 728 469.657 728 468C728 466.343 726.657 465 725 465C723.343 465 722 466.343 722 468C722 469.657 723.343 471 725 471Z" fill="#4AF6CD"/>
<path class="line-animation" d="M369 230C379.031 227.234 384.426 191.672 394.465 188.931C419.602 182.068 428.624 229.28 452.384 219.114C483.841 205.656 440.9 165.675 462.37 149.841C504.312 134.502 556.238 259.87 566.226 188.931C569.222 167.654 549.44 128.841 566.226 122.131C580.281 116.514 624.146 188.931 658.598 169.138C681.566 149.841 657.286 135.491 661.094 115.204C664.59 96.5877 689.5 118.5 709 105.5C713.035 102.81 727.221 92.2891 729 87" stroke="white" stroke-width="2" stroke-linecap="round"/>
<path class="animate__animated animate__fadeIn animate__delay-6s" d="M179.359 226H177.327L172.847 216.64C172.911 217.376 172.959 218.059 172.991 218.688C173.034 219.307 173.055 220.059 173.055 220.944V226H171.631V214.976H173.615L178.143 224.352C178.111 224.075 178.069 223.589 178.015 222.896C177.962 222.203 177.935 221.568 177.935 220.992V214.976H179.359V226ZM185.641 217.376C186.825 217.376 187.742 217.771 188.393 218.56C189.054 219.349 189.385 220.421 189.385 221.776C189.385 222.651 189.236 223.424 188.937 224.096C188.638 224.757 188.206 225.275 187.641 225.648C187.076 226.011 186.404 226.192 185.625 226.192C184.441 226.192 183.518 225.797 182.857 225.008C182.196 224.219 181.865 223.147 181.865 221.792C181.865 220.917 182.014 220.149 182.313 219.488C182.612 218.816 183.044 218.299 183.609 217.936C184.174 217.563 184.852 217.376 185.641 217.376ZM185.641 218.56C184.18 218.56 183.449 219.637 183.449 221.792C183.449 223.936 184.174 225.008 185.625 225.008C187.076 225.008 187.801 223.931 187.801 221.776C187.801 219.632 187.081 218.56 185.641 218.56ZM195.481 217.376C195.78 217.376 196.057 217.408 196.313 217.472L196.041 218.912C195.785 218.848 195.54 218.816 195.305 218.816C194.782 218.816 194.361 219.008 194.041 219.392C193.721 219.776 193.47 220.373 193.289 221.184V226H191.817V217.568H193.081L193.225 219.28C193.449 218.651 193.753 218.176 194.137 217.856C194.521 217.536 194.969 217.376 195.481 217.376ZM202.245 225.616C201.69 226 201.061 226.192 200.357 226.192C199.642 226.192 199.082 225.989 198.677 225.584C198.282 225.168 198.085 224.571 198.085 223.792V218.704H196.613V217.568H198.085V215.664L199.557 215.488V217.568H201.557L201.397 218.704H199.557V223.728C199.557 224.165 199.631 224.485 199.781 224.688C199.941 224.88 200.202 224.976 200.565 224.976C200.895 224.976 201.269 224.864 201.685 224.64L202.245 225.616ZM207.738 217.376C208.506 217.376 209.103 217.605 209.53 218.064C209.967 218.523 210.186 219.152 210.186 219.952V226H208.714V220.16C208.714 219.563 208.597 219.141 208.362 218.896C208.138 218.651 207.807 218.528 207.37 218.528C206.933 218.528 206.543 218.656 206.202 218.912C205.861 219.168 205.541 219.531 205.242 220V226H203.77V214.192L205.242 214.032V218.736C205.903 217.829 206.735 217.376 207.738 217.376ZM220.179 214.784C220.915 214.784 221.545 214.891 222.067 215.104C222.59 215.307 223.097 215.627 223.587 216.064L222.755 216.992C222.339 216.661 221.929 216.421 221.523 216.272C221.129 216.112 220.702 216.032 220.243 216.032C219.667 216.032 219.193 216.165 218.819 216.432C218.446 216.699 218.259 217.088 218.259 217.6C218.259 217.92 218.323 218.192 218.451 218.416C218.579 218.629 218.814 218.827 219.155 219.008C219.507 219.189 220.014 219.381 220.675 219.584C221.369 219.797 221.945 220.027 222.403 220.272C222.862 220.517 223.23 220.859 223.507 221.296C223.795 221.723 223.939 222.267 223.939 222.928C223.939 223.568 223.779 224.133 223.459 224.624C223.15 225.115 222.697 225.499 222.099 225.776C221.513 226.053 220.814 226.192 220.003 226.192C218.478 226.192 217.23 225.717 216.259 224.768L217.091 223.84C217.539 224.203 217.993 224.48 218.451 224.672C218.91 224.853 219.422 224.944 219.987 224.944C220.67 224.944 221.235 224.779 221.683 224.448C222.131 224.107 222.355 223.616 222.355 222.976C222.355 222.613 222.286 222.315 222.147 222.08C222.009 221.835 221.769 221.616 221.427 221.424C221.097 221.232 220.611 221.04 219.971 220.848C218.841 220.507 218.014 220.096 217.491 219.616C216.969 219.136 216.707 218.485 216.707 217.664C216.707 217.109 216.851 216.613 217.139 216.176C217.438 215.739 217.849 215.397 218.371 215.152C218.905 214.907 219.507 214.784 220.179 214.784ZM230.066 217.376C230.834 217.376 231.431 217.605 231.858 218.064C232.295 218.523 232.514 219.152 232.514 219.952V226H231.042V220.16C231.042 219.563 230.925 219.141 230.69 218.896C230.466 218.651 230.135 218.528 229.698 218.528C229.261 218.528 228.871 218.656 228.53 218.912C228.189 219.168 227.869 219.531 227.57 220V226H226.098V214.192L227.57 214.032V218.736C228.231 217.829 229.063 217.376 230.066 217.376ZM238.641 217.376C239.825 217.376 240.742 217.771 241.393 218.56C242.054 219.349 242.385 220.421 242.385 221.776C242.385 222.651 242.236 223.424 241.937 224.096C241.638 224.757 241.206 225.275 240.641 225.648C240.076 226.011 239.404 226.192 238.625 226.192C237.441 226.192 236.518 225.797 235.857 225.008C235.196 224.219 234.865 223.147 234.865 221.792C234.865 220.917 235.014 220.149 235.313 219.488C235.612 218.816 236.044 218.299 236.609 217.936C237.174 217.563 237.852 217.376 238.641 217.376ZM238.641 218.56C237.18 218.56 236.449 219.637 236.449 221.792C236.449 223.936 237.174 225.008 238.625 225.008C240.076 225.008 240.801 223.931 240.801 221.776C240.801 219.632 240.081 218.56 238.641 218.56ZM248.481 217.376C248.78 217.376 249.057 217.408 249.313 217.472L249.041 218.912C248.785 218.848 248.54 218.816 248.305 218.816C247.782 218.816 247.361 219.008 247.041 219.392C246.721 219.776 246.47 220.373 246.289 221.184V226H244.817V217.568H246.081L246.225 219.28C246.449 218.651 246.753 218.176 247.137 217.856C247.521 217.536 247.969 217.376 248.481 217.376ZM256.872 221.536C256.872 221.781 256.862 222.032 256.84 222.288H251.464C251.528 223.216 251.763 223.899 252.168 224.336C252.574 224.773 253.096 224.992 253.736 224.992C254.142 224.992 254.515 224.933 254.856 224.816C255.198 224.699 255.555 224.512 255.928 224.256L256.568 225.136C255.672 225.84 254.691 226.192 253.624 226.192C252.451 226.192 251.534 225.808 250.872 225.04C250.222 224.272 249.896 223.216 249.896 221.872C249.896 220.997 250.035 220.224 250.312 219.552C250.6 218.869 251.006 218.336 251.528 217.952C252.062 217.568 252.686 217.376 253.4 217.376C254.52 217.376 255.379 217.744 255.976 218.48C256.574 219.216 256.872 220.235 256.872 221.536ZM255.416 221.104C255.416 220.272 255.251 219.637 254.92 219.2C254.59 218.763 254.094 218.544 253.432 218.544C252.227 218.544 251.571 219.429 251.464 221.2H255.416V221.104ZM265.41 213.184V227.568H265.058V213.184H265.41ZM284.237 226H282.765L282.381 221.024C282.221 219.072 282.131 217.573 282.109 216.528L279.725 224.752H278.301L275.789 216.512C275.789 217.845 275.72 219.387 275.581 221.136L275.213 226H273.773L274.685 214.976H276.733L279.053 222.992L281.261 214.976H283.325L284.237 226ZM292.434 224.032C292.434 224.373 292.493 224.629 292.61 224.8C292.728 224.96 292.904 225.083 293.138 225.168L292.802 226.192C292.365 226.139 292.013 226.016 291.746 225.824C291.48 225.632 291.282 225.333 291.154 224.928C290.589 225.771 289.752 226.192 288.642 226.192C287.81 226.192 287.154 225.957 286.674 225.488C286.194 225.019 285.954 224.405 285.954 223.648C285.954 222.752 286.274 222.064 286.914 221.584C287.565 221.104 288.482 220.864 289.666 220.864H290.962V220.24C290.962 219.643 290.818 219.216 290.53 218.96C290.242 218.704 289.8 218.576 289.202 218.576C288.584 218.576 287.826 218.725 286.93 219.024L286.562 217.952C287.608 217.568 288.578 217.376 289.474 217.376C290.466 217.376 291.208 217.621 291.698 218.112C292.189 218.592 292.434 219.28 292.434 220.176V224.032ZM288.978 225.088C289.821 225.088 290.482 224.651 290.962 223.776V221.84H289.858C288.301 221.84 287.522 222.416 287.522 223.568C287.522 224.069 287.645 224.448 287.89 224.704C288.136 224.96 288.498 225.088 288.978 225.088ZM296.981 226.192C296.437 226.192 296.005 226.032 295.685 225.712C295.376 225.381 295.221 224.923 295.221 224.336V214.176L296.693 214V224.304C296.693 224.539 296.731 224.709 296.805 224.816C296.891 224.923 297.029 224.976 297.221 224.976C297.424 224.976 297.605 224.944 297.765 224.88L298.149 225.904C297.797 226.096 297.408 226.192 296.981 226.192ZM301.461 217.568V226H299.989V217.568H301.461ZM300.709 213.52C301.018 213.52 301.269 213.616 301.461 213.808C301.653 214 301.749 214.24 301.749 214.528C301.749 214.816 301.653 215.056 301.461 215.248C301.269 215.429 301.018 215.52 300.709 215.52C300.41 215.52 300.165 215.429 299.973 215.248C299.781 215.056 299.685 214.816 299.685 214.528C299.685 214.24 299.781 214 299.973 213.808C300.165 213.616 300.41 213.52 300.709 213.52ZM308.36 217.376C309.32 217.376 310.083 217.765 310.648 218.544C311.214 219.312 311.496 220.389 311.496 221.776C311.496 222.651 311.363 223.424 311.096 224.096C310.83 224.757 310.446 225.275 309.944 225.648C309.443 226.011 308.856 226.192 308.184 226.192C307.299 226.192 306.552 225.819 305.944 225.072L305.8 226H304.504V214.176L305.976 214V218.624C306.584 217.792 307.379 217.376 308.36 217.376ZM307.832 225.024C308.483 225.024 308.99 224.763 309.352 224.24C309.726 223.707 309.912 222.885 309.912 221.776C309.912 220.635 309.742 219.813 309.4 219.312C309.059 218.8 308.574 218.544 307.944 218.544C307.198 218.544 306.542 218.981 305.976 219.856V223.888C306.2 224.24 306.472 224.517 306.792 224.72C307.123 224.923 307.47 225.024 307.832 225.024ZM320.276 226H319.012L318.9 224.688C318.58 225.211 318.212 225.595 317.796 225.84C317.38 226.075 316.874 226.192 316.276 226.192C315.54 226.192 314.964 225.968 314.548 225.52C314.132 225.072 313.924 224.437 313.924 223.616V217.568H315.396V223.456C315.396 224.032 315.498 224.443 315.7 224.688C315.903 224.923 316.234 225.04 316.692 225.04C317.514 225.04 318.218 224.555 318.804 223.584V217.568H320.276V226ZM323.701 223.968C324.021 223.968 324.288 224.075 324.501 224.288C324.714 224.501 324.821 224.763 324.821 225.072C324.821 225.403 324.725 225.781 324.533 226.208L323.461 228.656H322.405L323.045 226C322.906 225.893 322.794 225.76 322.709 225.6C322.634 225.44 322.597 225.264 322.597 225.072C322.597 224.763 322.704 224.501 322.917 224.288C323.13 224.075 323.392 223.968 323.701 223.968ZM335.331 214.784C335.992 214.784 336.547 214.869 336.995 215.04C337.454 215.211 337.918 215.488 338.387 215.872L337.555 216.848C336.883 216.304 336.174 216.032 335.427 216.032C334.51 216.032 333.768 216.384 333.203 217.088C332.648 217.792 332.371 218.923 332.371 220.48C332.371 221.995 332.648 223.115 333.203 223.84C333.758 224.555 334.494 224.912 335.411 224.912C335.88 224.912 336.291 224.832 336.643 224.672C336.995 224.512 337.368 224.288 337.763 224L338.515 224.96C338.174 225.312 337.736 225.605 337.203 225.84C336.67 226.075 336.056 226.192 335.363 226.192C334.467 226.192 333.667 225.973 332.963 225.536C332.27 225.088 331.726 224.437 331.331 223.584C330.947 222.72 330.755 221.685 330.755 220.48C330.755 219.275 330.958 218.245 331.363 217.392C331.768 216.528 332.318 215.877 333.011 215.44C333.704 215.003 334.478 214.784 335.331 214.784ZM346.3 226L345.468 223.232H341.292L340.46 226H338.924L342.46 214.976H344.38L347.9 226H346.3ZM341.66 222H345.1L343.388 216.24L341.66 222Z" fill="white"/>
<path fill-rule="evenodd" clip-rule="evenodd" d="M729.5 91C733.09 91 736 88.0899 736 84.5C736 80.9101 733.09 78 729.5 78C725.91 78 723 80.9101 723 84.5C723 88.0899 725.91 91 729.5 91Z" fill="#4AF6CD"/>
<path class="animate__animated animate__fadeIn animate__delay-6s" fill-rule="evenodd" clip-rule="evenodd" d="M368.5 235C372.09 235 375 232.09 375 228.5C375 224.91 372.09 222 368.5 222C364.91 222 362 224.91 362 228.5C362 232.09 364.91 235 368.5 235Z" fill="#4AF6CD"/>
<path d="M598.378 75.784C599.039 75.784 599.594 75.8693 600.042 76.04C600.501 76.2107 600.965 76.488 601.434 76.872L600.602 77.848C599.93 77.304 599.221 77.032 598.474 77.032C597.557 77.032 596.815 77.384 596.25 78.088C595.695 78.792 595.418 79.9227 595.418 81.48C595.418 82.9947 595.695 84.1147 596.25 84.84C596.805 85.5547 597.541 85.912 598.458 85.912C598.927 85.912 599.338 85.832 599.69 85.672C600.042 85.512 600.415 85.288 600.81 85L601.562 85.96C601.221 86.312 600.783 86.6053 600.25 86.84C599.717 87.0747 599.103 87.192 598.41 87.192C597.514 87.192 596.714 86.9733 596.01 86.536C595.317 86.088 594.773 85.4373 594.378 84.584C593.994 83.72 593.802 82.6853 593.802 81.48C593.802 80.2747 594.005 79.2453 594.41 78.392C594.815 77.528 595.365 76.8773 596.058 76.44C596.751 76.0027 597.525 75.784 598.378 75.784ZM609.401 87H608.137L608.025 85.688C607.705 86.2107 607.337 86.5947 606.921 86.84C606.505 87.0747 605.999 87.192 605.401 87.192C604.665 87.192 604.089 86.968 603.673 86.52C603.257 86.072 603.049 85.4373 603.049 84.616V78.568H604.521V84.456C604.521 85.032 604.623 85.4427 604.825 85.688C605.028 85.9227 605.359 86.04 605.817 86.04C606.639 86.04 607.343 85.5547 607.929 84.584V78.568H609.401V87ZM616.106 78.376C616.405 78.376 616.682 78.408 616.938 78.472L616.666 79.912C616.41 79.848 616.165 79.816 615.93 79.816C615.407 79.816 614.986 80.008 614.666 80.392C614.346 80.776 614.095 81.3733 613.914 82.184V87H612.442V78.568H613.706L613.85 80.28C614.074 79.6507 614.378 79.176 614.762 78.856C615.146 78.536 615.594 78.376 616.106 78.376ZM622.278 78.376C622.576 78.376 622.854 78.408 623.11 78.472L622.838 79.912C622.582 79.848 622.336 79.816 622.102 79.816C621.579 79.816 621.158 80.008 620.838 80.392C620.518 80.776 620.267 81.3733 620.086 82.184V87H618.614V78.568H619.878L620.022 80.28C620.246 79.6507 620.55 79.176 620.934 78.856C621.318 78.536 621.766 78.376 622.278 78.376ZM630.669 82.536C630.669 82.7813 630.659 83.032 630.637 83.288H625.261C625.325 84.216 625.56 84.8987 625.965 85.336C626.371 85.7733 626.893 85.992 627.533 85.992C627.939 85.992 628.312 85.9333 628.653 85.816C628.995 85.6987 629.352 85.512 629.725 85.256L630.365 86.136C629.469 86.84 628.488 87.192 627.421 87.192C626.248 87.192 625.331 86.808 624.669 86.04C624.019 85.272 623.693 84.216 623.693 82.872C623.693 81.9973 623.832 81.224 624.109 80.552C624.397 79.8693 624.803 79.336 625.325 78.952C625.859 78.568 626.483 78.376 627.197 78.376C628.317 78.376 629.176 78.744 629.773 79.48C630.371 80.216 630.669 81.2347 630.669 82.536ZM629.213 82.104C629.213 81.272 629.048 80.6373 628.717 80.2C628.387 79.7627 627.891 79.544 627.229 79.544C626.024 79.544 625.368 80.4293 625.261 82.2H629.213V82.104ZM636.988 78.376C637.756 78.376 638.353 78.6053 638.78 79.064C639.217 79.5227 639.436 80.152 639.436 80.952V87H637.964V81.16C637.964 80.5627 637.852 80.1413 637.628 79.896C637.404 79.6507 637.073 79.528 636.636 79.528C636.188 79.528 635.793 79.656 635.452 79.912C635.111 80.168 634.791 80.536 634.492 81.016V87H633.02V78.568H634.284L634.412 79.816C634.711 79.368 635.079 79.016 635.516 78.76C635.964 78.504 636.455 78.376 636.988 78.376ZM646.651 86.616C646.096 87 645.467 87.192 644.763 87.192C644.048 87.192 643.488 86.9893 643.083 86.584C642.688 86.168 642.491 85.5707 642.491 84.792V79.704H641.019V78.568H642.491V76.664L643.963 76.488V78.568H645.963L645.803 79.704H643.963V84.728C643.963 85.1653 644.038 85.4853 644.187 85.688C644.347 85.88 644.608 85.976 644.971 85.976C645.302 85.976 645.675 85.864 646.091 85.64L646.651 86.616ZM654.011 75.976V85.672H658.539L658.363 87H652.491V75.976H654.011ZM663.141 78.376C664.325 78.376 665.242 78.7707 665.893 79.56C666.554 80.3493 666.885 81.4213 666.885 82.776C666.885 83.6507 666.736 84.424 666.437 85.096C666.138 85.7573 665.706 86.2747 665.141 86.648C664.576 87.0107 663.904 87.192 663.125 87.192C661.941 87.192 661.018 86.7973 660.357 86.008C659.696 85.2187 659.365 84.1467 659.365 82.792C659.365 81.9173 659.514 81.1493 659.813 80.488C660.112 79.816 660.544 79.2987 661.109 78.936C661.674 78.5627 662.352 78.376 663.141 78.376ZM663.141 79.56C661.68 79.56 660.949 80.6373 660.949 82.792C660.949 84.936 661.674 86.008 663.125 86.008C664.576 86.008 665.301 84.9307 665.301 82.776C665.301 80.632 664.581 79.56 663.141 79.56ZM672.389 78.376C672.89 78.376 673.349 78.4507 673.765 78.6C674.181 78.7387 674.581 78.968 674.965 79.288L674.261 80.216C673.962 80.0027 673.669 79.848 673.381 79.752C673.104 79.6453 672.794 79.592 672.453 79.592C671.77 79.592 671.237 79.864 670.853 80.408C670.48 80.952 670.293 81.7573 670.293 82.824C670.293 83.8907 670.48 84.68 670.853 85.192C671.226 85.6933 671.76 85.944 672.453 85.944C672.784 85.944 673.088 85.896 673.365 85.8C673.642 85.6933 673.952 85.528 674.293 85.304L674.965 86.264C674.197 86.8827 673.338 87.192 672.389 87.192C671.248 87.192 670.346 86.808 669.685 86.04C669.034 85.272 668.709 84.2107 668.709 82.856C668.709 81.96 668.858 81.176 669.157 80.504C669.456 79.832 669.877 79.3093 670.421 78.936C670.976 78.5627 671.632 78.376 672.389 78.376ZM682.481 85.032C682.481 85.3733 682.54 85.6293 682.657 85.8C682.775 85.96 682.951 86.0827 683.185 86.168L682.849 87.192C682.412 87.1387 682.06 87.016 681.793 86.824C681.527 86.632 681.329 86.3333 681.201 85.928C680.636 86.7707 679.799 87.192 678.689 87.192C677.857 87.192 677.201 86.9573 676.721 86.488C676.241 86.0187 676.001 85.4053 676.001 84.648C676.001 83.752 676.321 83.064 676.961 82.584C677.612 82.104 678.529 81.864 679.713 81.864H681.009V81.24C681.009 80.6427 680.865 80.216 680.577 79.96C680.289 79.704 679.847 79.576 679.249 79.576C678.631 79.576 677.873 79.7253 676.977 80.024L676.609 78.952C677.655 78.568 678.625 78.376 679.521 78.376C680.513 78.376 681.255 78.6213 681.745 79.112C682.236 79.592 682.481 80.28 682.481 81.176V85.032ZM679.025 86.088C679.868 86.088 680.529 85.6507 681.009 84.776V82.84H679.905C678.348 82.84 677.569 83.416 677.569 84.568C677.569 85.0693 677.692 85.448 677.937 85.704C678.183 85.96 678.545 86.088 679.025 86.088ZM689.76 86.616C689.206 87 688.576 87.192 687.872 87.192C687.158 87.192 686.598 86.9893 686.192 86.584C685.798 86.168 685.6 85.5707 685.6 84.792V79.704H684.128V78.568H685.6V76.664L687.072 76.488V78.568H689.072L688.912 79.704H687.072V84.728C687.072 85.1653 687.147 85.4853 687.296 85.688C687.456 85.88 687.718 85.976 688.08 85.976C688.411 85.976 688.784 85.864 689.2 85.64L689.76 86.616ZM692.758 78.568V87H691.286V78.568H692.758ZM692.006 74.52C692.315 74.52 692.566 74.616 692.758 74.808C692.95 75 693.046 75.24 693.046 75.528C693.046 75.816 692.95 76.056 692.758 76.248C692.566 76.4293 692.315 76.52 692.006 76.52C691.707 76.52 691.462 76.4293 691.27 76.248C691.078 76.056 690.982 75.816 690.982 75.528C690.982 75.24 691.078 75 691.27 74.808C691.462 74.616 691.707 74.52 692.006 74.52ZM698.969 78.376C700.153 78.376 701.071 78.7707 701.721 79.56C702.383 80.3493 702.713 81.4213 702.713 82.776C702.713 83.6507 702.564 84.424 702.265 85.096C701.967 85.7573 701.535 86.2747 700.969 86.648C700.404 87.0107 699.732 87.192 698.953 87.192C697.769 87.192 696.847 86.7973 696.185 86.008C695.524 85.2187 695.193 84.1467 695.193 82.792C695.193 81.9173 695.343 81.1493 695.641 80.488C695.94 79.816 696.372 79.2987 696.937 78.936C697.503 78.5627 698.18 78.376 698.969 78.376ZM698.969 79.56C697.508 79.56 696.777 80.6373 696.777 82.792C696.777 84.936 697.503 86.008 698.953 86.008C700.404 86.008 701.129 84.9307 701.129 82.776C701.129 80.632 700.409 79.56 698.969 79.56ZM709.113 78.376C709.881 78.376 710.478 78.6053 710.905 79.064C711.342 79.5227 711.561 80.152 711.561 80.952V87H710.089V81.16C710.089 80.5627 709.977 80.1413 709.753 79.896C709.529 79.6507 709.198 79.528 708.761 79.528C708.313 79.528 707.918 79.656 707.577 79.912C707.236 80.168 706.916 80.536 706.617 81.016V87H705.145V78.568H706.409L706.537 79.816C706.836 79.368 707.204 79.016 707.641 78.76C708.089 78.504 708.58 78.376 709.113 78.376Z" fill="white"/>
</svg>
